<svg width="69" height="78" viewBox="0 0 69 78" fill="none" xmlns="http://www.w3.org/2000/svg">
<path fill-rule="evenodd" clip-rule="evenodd" d="M24.3577 18.7367C24.6663 18.0669 25.0277 17.5466 25.2665 17.2722C25.2712 17.9193 25.1715 18.4997 25.0171 19.0042C25.4924 19.2334 25.9863 19.5545 26.4582 19.9974C26.0946 19.9864 25.4671 19.8984 24.7657 19.6699C24.4424 20.3827 24.0338 20.8749 23.7659 21.1041C23.784 20.5042 23.9103 19.9292 24.0876 19.4106C23.5866 19.1885 23.079 18.8908 22.6264 18.4968C22.9764 18.4558 23.6151 18.49 24.3577 18.7367Z" fill="url(#paint0_linear_643_2868)"/>
<path fill-rule="evenodd" clip-rule="evenodd" d="M21.9189 12.0266C22.1243 11.5807 22.3648 11.2344 22.5238 11.0518C22.5269 11.4825 22.4605 11.8688 22.3577 12.2046C22.6741 12.3572 23.0029 12.5709 23.3171 12.8658C23.075 12.8585 22.6573 12.7998 22.1904 12.6477C21.9752 13.1222 21.7032 13.4499 21.5249 13.6024C21.537 13.2031 21.621 12.8203 21.7391 12.4751C21.4056 12.3273 21.0677 12.1291 20.7665 11.8669C20.9995 11.8396 21.4246 11.8624 21.9189 12.0266Z" fill="url(#paint1_linear_643_2868)"/>
<path fill-rule="evenodd" clip-rule="evenodd" d="M15.3182 5.35608C15.6268 4.68628 15.9882 4.16596 16.227 3.89162C16.2317 4.53868 16.132 5.11909 15.9776 5.62354C16.4528 5.85278 16.9468 6.1738 17.4187 6.61678C17.0551 6.60578 16.4275 6.5177 15.7262 6.28923C15.4029 7.00211 14.9943 7.49432 14.7264 7.72347C14.7445 7.12353 14.8708 6.54855 15.0481 6.02989C14.5471 5.80786 14.0394 5.51013 13.5868 5.11614C13.9369 5.0751 14.5756 5.10937 15.3182 5.35608Z" fill="url(#paint2_linear_643_2868)"/>
<path fill-rule="evenodd" clip-rule="evenodd" d="M14.2724 20.3744C14.7263 19.3888 15.2581 18.6232 15.6095 18.2195C15.6164 19.1717 15.4696 20.0258 15.2424 20.768C15.9413 21.1052 16.6676 21.5774 17.3616 22.2288C16.8268 22.2126 15.904 22.0831 14.8725 21.7472C14.397 22.7959 13.7958 23.52 13.4017 23.8571C13.4284 22.9746 13.6141 22.1288 13.8749 21.3658C13.1375 21.0391 12.3902 20.6009 11.7241 20.021C12.2393 19.9606 13.1793 20.0111 14.2724 20.3744Z" fill="url(#paint3_linear_643_2868)"/>
<circle cx="17.0028" cy="13.6293" r="0.397721" transform="rotate(21.3865 17.0028 13.6293)" fill="#2F235A"/>
<circle cx="26.8505" cy="8.62853" r="0.397721" transform="rotate(21.3865 26.8505 8.62853)" fill="#FE9076"/>
<circle cx="7.94698" cy="10.8011" r="0.397721" transform="rotate(21.3865 7.94698 10.8011)" fill="#FFA400"/>
<circle cx="16.4874" cy="26.8153" r="0.397721" transform="rotate(21.3865 16.4874 26.8153)" fill="#23BB86"/>
<path d="M26.5488 6.72757C26.1619 5.24974 24.7652 1.86989 22.2742 0.173097" stroke="#FE9076" stroke-width="0.346178" stroke-linecap="round"/>
<path d="M6.77332 9.19663C5.81052 8.01059 3.14254 5.50942 0.173109 4.99306" stroke="#FFA400" stroke-width="0.346178" stroke-linecap="round"/>
<path d="M14.7954 27.3932C13.9422 27.7044 11.7942 28.696 10.0284 30.1728" stroke="#23BB86" stroke-width="0.346178" stroke-linecap="round"/>
<path fill-rule="evenodd" clip-rule="evenodd" d="M44.067 18.7368C43.7585 18.067 43.3971 17.5467 43.1583 17.2724C43.1536 17.9194 43.2533 18.4998 43.4077 19.0043C42.9324 19.2335 42.4385 19.5545 41.9666 19.9975C42.3302 19.9865 42.9577 19.8984 43.6591 19.67C43.9823 20.3828 44.391 20.8751 44.6589 21.1042C44.6408 20.5043 44.5145 19.9293 44.3372 19.4106C44.8382 19.1886 45.3458 18.8909 45.7984 18.4969C45.4483 18.4558 44.8097 18.4901 44.067 18.7368Z" fill="url(#paint4_linear_643_2868)"/>
<path fill-rule="evenodd" clip-rule="evenodd" d="M46.5059 12.0264C46.3006 11.5806 46.06 11.2342 45.901 11.0516C45.8979 11.4823 45.9643 11.8687 46.0671 12.2044C45.7507 12.357 45.4219 12.5707 45.1077 12.8656C45.3498 12.8583 45.7675 12.7996 46.2344 12.6475C46.4496 13.1221 46.7216 13.4497 46.8999 13.6022C46.8878 13.2029 46.8038 12.8201 46.6858 12.4749C47.0192 12.3271 47.3571 12.1289 47.6583 11.8667C47.4253 11.8394 47.0002 11.8622 46.5059 12.0264Z" fill="url(#paint5_linear_643_2868)"/>
<path fill-rule="evenodd" clip-rule="evenodd" d="M53.1076 5.35596C52.799 4.68615 52.4376 4.16584 52.1988 3.89149C52.1941 4.53856 52.2938 5.11897 52.4482 5.62342C51.9729 5.85266 51.479 6.17368 51.0071 6.61666C51.3707 6.60566 51.9982 6.51757 52.6996 6.28911C53.0229 7.00199 53.4315 7.4942 53.6994 7.72335C53.6813 7.12341 53.555 6.54843 53.3777 6.02977C53.8787 5.80774 54.3864 5.51 54.8389 5.11601C54.4889 5.07497 53.8502 5.10925 53.1076 5.35596Z" fill="url(#paint6_linear_643_2868)"/>
<path fill-rule="evenodd" clip-rule="evenodd" d="M54.1533 20.3744C53.6993 19.3888 53.1676 18.6232 52.8162 18.2195C52.8093 19.1717 52.956 20.0257 53.1833 20.768C52.4843 21.1052 51.758 21.5774 51.064 22.2288C51.5988 22.2126 52.5217 22.0831 53.5531 21.7472C54.0287 22.7959 54.6299 23.52 55.024 23.8571C54.9973 22.9746 54.8116 22.1288 54.5508 21.3658C55.2882 21.0391 56.0354 20.6009 56.7016 20.021C56.1864 19.9606 55.2464 20.0111 54.1533 20.3744Z" fill="url(#paint7_linear_643_2868)"/>
<circle cx="0.397721" cy="0.397721" r="0.397721" transform="matrix(-0.931142 0.364658 0.364658 0.931142 51.6475 13.114)" fill="#2F235A"/>
<circle cx="0.397721" cy="0.397721" r="0.397721" transform="matrix(-0.931142 0.364658 0.364658 0.931142 41.7997 8.11316)" fill="#FE9076"/>
<circle cx="0.397721" cy="0.397721" r="0.397721" transform="matrix(-0.931142 0.364658 0.364658 0.931142 60.7032 10.2858)" fill="#FFA400"/>
<circle cx="0.397721" cy="0.397721" r="0.397721" transform="matrix(-0.931142 0.364658 0.364658 0.931142 52.1628 26.2999)" fill="#23BB86"/>
<path d="M41.8766 6.72757C42.2636 5.24974 43.6602 1.86989 46.1512 0.173097" stroke="#FE9076" stroke-width="0.346178" stroke-linecap="round"/>
<path d="M61.6516 9.19663C62.6144 8.01059 65.2824 5.50942 68.2518 4.99306" stroke="#FFA400" stroke-width="0.346178" stroke-linecap="round"/>
<path d="M53.63 27.3932C54.4833 27.7044 56.6312 28.696 58.397 30.1728" stroke="#23BB86" stroke-width="0.346178" stroke-linecap="round"/>
<rect x="12.8527" y="48.6893" width="42.2141" height="29.181" fill="url(#paint8_linear_643_2868)"/>
<mask id="mask0_643_2868" style="mask-type:alpha" maskUnits="userSpaceOnUse" x="12" y="48" width="44" height="30">
<rect x="12.8527" y="48.6893" width="42.2141" height="29.181" fill="#C4C4C4"/>
</mask>
<g mask="url(#mask0_643_2868)">
<path d="M14.8496 47.9463L43.5944 47.9462L37.0974 59.2274L8.35254 59.2274L14.8496 47.9463Z" fill="black" fill-opacity="0.07"/>
<rect x="41.5594" y="48.6893" width="42.2141" height="29.181" fill="url(#paint9_linear_643_2868)"/>
</g>
<path d="M12.8152 48.6893L41.5601 48.6893L36.0074 57.9554L7.26257 57.9554L12.8152 48.6893Z" fill="url(#paint10_linear_643_2868)"/>
<mask id="mask1_643_2868" style="mask-type:alpha" maskUnits="userSpaceOnUse" x="41" y="48" width="15" height="30">
<rect x="41.5601" y="48.6893" width="13.5065" height="29.181" fill="#C4C4C4"/>
</mask>
<g mask="url(#mask1_643_2868)">
<path d="M53.4222 48.6408L39.8945 48.6408L46.2509 59.309L59.7786 59.309L53.4222 48.6408Z" fill="black" fill-opacity="0.07"/>
</g>
<path d="M55.0876 48.6893L41.56 48.6893L47.1126 57.9554L60.6403 57.9554L55.0876 48.6893Z" fill="url(#paint11_linear_643_2868)"/>
<circle cx="27.8168" cy="40.6091" r="3.98921" fill="url(#paint12_linear_643_2868)"/>
<circle cx="40.2201" cy="35.2767" r="3.85479" fill="url(#paint13_linear_643_2868)"/>
<circle cx="31.8063" cy="25.4545" r="3.10851" fill="url(#paint14_linear_643_2868)"/>
<circle cx="42.3349" cy="24.9854" r="0.775212" fill="#FFA800" fill-opacity="0.23"/>
<circle cx="37.1406" cy="42.6055" r="0.775212" fill="#FFA800" fill-opacity="0.23"/>
<circle cx="24.4112" cy="30.6466" r="0.775212" fill="#FFA800" fill-opacity="0.23"/>
<path d="M55.166 48.8273H12.8188L6.31531 8.7287H62.9753L55.166 48.8273Z" fill="url(#paint15_linear_643_2868)"/>
<defs>
<linearGradient id="paint0_linear_643_2868" x1="25.1494" y1="17.6968" x2="23.7404" y2="21.2946" gradientUnits="userSpaceOnUse">
<stop stop-color="#FFE89E"/>
<stop offset="1" stop-color="#FFBF1A"/>
</linearGradient>
<linearGradient id="paint1_linear_643_2868" x1="22.4459" y1="11.3344" x2="21.508" y2="13.7293" gradientUnits="userSpaceOnUse">
<stop stop-color="#FFE89E"/>
<stop offset="1" stop-color="#FFBF1A"/>
</linearGradient>
<linearGradient id="paint2_linear_643_2868" x1="16.1099" y1="4.31616" x2="14.7009" y2="7.91402" gradientUnits="userSpaceOnUse">
<stop stop-color="#FFE89E"/>
<stop offset="1" stop-color="#FFBF1A"/>
</linearGradient>
<linearGradient id="paint3_linear_643_2868" x1="15.4362" y1="18.8437" x2="13.3632" y2="24.137" gradientUnits="userSpaceOnUse">
<stop stop-color="#FFE89E"/>
<stop offset="1" stop-color="#FFBF1A"/>
</linearGradient>
<linearGradient id="paint4_linear_643_2868" x1="43.2754" y1="17.6969" x2="44.6844" y2="21.2948" gradientUnits="userSpaceOnUse">
<stop stop-color="#FFE89E"/>
<stop offset="1" stop-color="#FFBF1A"/>
</linearGradient>
<linearGradient id="paint5_linear_643_2868" x1="45.9789" y1="11.3342" x2="46.9168" y2="13.7291" gradientUnits="userSpaceOnUse">
<stop stop-color="#FFE89E"/>
<stop offset="1" stop-color="#FFBF1A"/>
</linearGradient>
<linearGradient id="paint6_linear_643_2868" x1="52.3159" y1="4.31604" x2="53.7249" y2="7.9139" gradientUnits="userSpaceOnUse">
<stop stop-color="#FFE89E"/>
<stop offset="1" stop-color="#FFBF1A"/>
</linearGradient>
<linearGradient id="paint7_linear_643_2868" x1="52.9894" y1="18.8437" x2="55.0624" y2="24.137" gradientUnits="userSpaceOnUse">
<stop stop-color="#FFE89E"/>
<stop offset="1" stop-color="#FFBF1A"/>
</linearGradient>
<linearGradient id="paint8_linear_643_2868" x1="26.9541" y1="43.2867" x2="10.1295" y2="89.6264" gradientUnits="userSpaceOnUse">
<stop stop-color="#FFD481"/>
<stop offset="1" stop-color="#FA620C"/>
</linearGradient>
<linearGradient id="paint9_linear_643_2868" x1="20.0545" y1="46.8384" x2="71.1152" y2="101.404" gradientUnits="userSpaceOnUse">
<stop stop-color="#FFD481"/>
<stop offset="0.83311" stop-color="#FA620C"/>
</linearGradient>
<linearGradient id="paint10_linear_643_2868" x1="13.4068" y1="45.3775" x2="12.0407" y2="65.1208" gradientUnits="userSpaceOnUse">
<stop stop-color="#FFD481"/>
<stop offset="1" stop-color="#FA620C"/>
</linearGradient>
<linearGradient id="paint11_linear_643_2868" x1="57.2221" y1="45.3775" x2="59.6519" y2="64.9131" gradientUnits="userSpaceOnUse">
<stop stop-color="#FFD481"/>
<stop offset="1" stop-color="#FA620C"/>
</linearGradient>
<linearGradient id="paint12_linear_643_2868" x1="28.1189" y1="35.3033" x2="27.3601" y2="46.0711" gradientUnits="userSpaceOnUse">
<stop stop-color="#FF9F81"/>
<stop offset="1" stop-color="#F53838"/>
</linearGradient>
<linearGradient id="paint13_linear_643_2868" x1="40.512" y1="30.1497" x2="39.7788" y2="40.5547" gradientUnits="userSpaceOnUse">
<stop stop-color="#FF9F81"/>
<stop offset="1" stop-color="#F53838"/>
</linearGradient>
<linearGradient id="paint14_linear_643_2868" x1="32.0417" y1="21.32" x2="31.4504" y2="29.7107" gradientUnits="userSpaceOnUse">
<stop stop-color="#FF9F81"/>
<stop offset="1" stop-color="#F53838"/>
</linearGradient>
<linearGradient id="paint15_linear_643_2868" x1="34.1797" y1="8.7287" x2="34.1798" y2="93.9193" gradientUnits="userSpaceOnUse">
<stop stop-color="white" stop-opacity="0"/>
<stop offset="1" stop-color="#FE9277"/>
</linearGradient>
</defs>
</svg>
